<?xml version="1.0" encoding="UTF-8" standalone="no"?>
<svg
   xmlns:dc="http://purl.org/dc/elements/1.1/"
   xmlns:cc="http://creativecommons.org/ns#"
   xmlns:rdf="http://www.w3.org/1999/02/22-rdf-syntax-ns#"
   xmlns:svg="http://www.w3.org/2000/svg"
   xmlns="http://www.w3.org/2000/svg"
   xmlns:sodipodi="http://sodipodi.sourceforge.net/DTD/sodipodi-0.dtd"
   xmlns:inkscape="http://www.inkscape.org/namespaces/inkscape"
   viewBox="0 0 100 100"
   preserveAspectRatio="none"
   version="1.1"
   id="svg6131"
   sodipodi:docname="2.svg"
   inkscape:version="0.92.4 (5da689c313, 2019-01-14)"
   inkscape:export-filename="/home/flatline/images/travail/waves/paper/waves/cut/no-border/black-and-white/light.png"
   inkscape:export-xdpi="96"
   inkscape:export-ydpi="96">
  <metadata
     id="metadata6137">
    <rdf:RDF>
      <cc:Work
         rdf:about="">
        <dc:format>image/svg+xml</dc:format>
        <dc:type
           rdf:resource="http://purl.org/dc/dcmitype/StillImage" />
        <dc:title></dc:title>
      </cc:Work>
    </rdf:RDF>
  </metadata>
  <defs
     id="defs6135">
    <filter
       style="color-interpolation-filters:sRGB;"
       inkscape:label="Drop Shadow"
       id="filter1049">
      <feFlood
         flood-opacity="0.498039"
         flood-color="rgb(0,0,0)"
         result="flood"
         id="feFlood1039" />
      <feComposite
         in="flood"
         in2="SourceGraphic"
         operator="in"
         result="composite1"
         id="feComposite1041" />
      <feGaussianBlur
         in="composite1"
         stdDeviation="0.5"
         result="blur"
         id="feGaussianBlur1043" />
      <feOffset
         dx="0.5"
         dy="0.5"
         result="offset"
         id="feOffset1045" />
      <feComposite
         in="SourceGraphic"
         in2="offset"
         operator="over"
         result="composite2"
         id="feComposite1047" />
    </filter>
    <filter
       style="color-interpolation-filters:sRGB;"
       inkscape:label="Drop Shadow"
       id="filter1061">
      <feFlood
         flood-opacity="0.498039"
         flood-color="rgb(0,0,0)"
         result="flood"
         id="feFlood1051" />
      <feComposite
         in="flood"
         in2="SourceGraphic"
         operator="in"
         result="composite1"
         id="feComposite1053" />
      <feGaussianBlur
         in="composite1"
         stdDeviation="0.5"
         result="blur"
         id="feGaussianBlur1055" />
      <feOffset
         dx="0.5"
         dy="0.5"
         result="offset"
         id="feOffset1057" />
      <feComposite
         in="SourceGraphic"
         in2="offset"
         operator="over"
         result="composite2"
         id="feComposite1059" />
    </filter>
    <filter
       style="color-interpolation-filters:sRGB;"
       inkscape:label="Drop Shadow"
       id="filter1016">
      <feFlood
         flood-opacity="0.498039"
         flood-color="rgb(0,0,0)"
         result="flood"
         id="feFlood1006" />
      <feComposite
         in="flood"
         in2="SourceGraphic"
         operator="in"
         result="composite1"
         id="feComposite1008" />
      <feGaussianBlur
         in="composite1"
         stdDeviation="2"
         result="blur"
         id="feGaussianBlur1010" />
      <feOffset
         dx="-1"
         dy="1"
         result="offset"
         id="feOffset1012" />
      <feComposite
         in="offset"
         in2="SourceGraphic"
         operator="out"
         result="composite2"
         id="feComposite1014" />
    </filter>
    <filter
       style="color-interpolation-filters:sRGB;"
       inkscape:label="Drop Shadow"
       id="filter1030">
      <feFlood
         flood-opacity="0.498039"
         flood-color="rgb(0,0,0)"
         result="flood"
         id="feFlood1020" />
      <feComposite
         in="flood"
         in2="SourceGraphic"
         operator="in"
         result="composite1"
         id="feComposite1022" />
      <feGaussianBlur
         in="composite1"
         stdDeviation="2"
         result="blur"
         id="feGaussianBlur1024" />
      <feOffset
         dx="-1"
         dy="1"
         result="offset"
         id="feOffset1026" />
      <feComposite
         in="offset"
         in2="SourceGraphic"
         operator="out"
         result="composite2"
         id="feComposite1028" />
    </filter>
  </defs>
  <sodipodi:namedview
     pagecolor="#ffffff"
     bordercolor="#666666"
     borderopacity="1"
     objecttolerance="10"
     gridtolerance="10"
     guidetolerance="10"
     inkscape:pageopacity="0"
     inkscape:pageshadow="2"
     inkscape:window-width="1358"
     inkscape:window-height="737"
     id="namedview6133"
     showgrid="false"
     inkscape:pagecheckerboard="true"
     inkscape:zoom="5.92"
     inkscape:cx="60.375228"
     inkscape:cy="64.575595"
     inkscape:current-layer="layer13"
     inkscape:window-x="0"
     inkscape:window-y="23"
     inkscape:window-maximized="0" />
  <g
     inkscape:groupmode="layer"
     id="layer11"
     inkscape:label="0"
     style="display:inline">
    <rect
       height="100"
       width="100"
       y="0"
       x="0"
       id="rect1032"
       style="display:inline;opacity:1;fill:#6666ff;fill-opacity:1;stroke:none;stroke-width:1;stroke-miterlimit:4;stroke-dasharray:none;stroke-opacity:1" />
    <path
       style="display:inline;opacity:1;fill:#ffffff;fill-opacity:1;stroke:none;stroke-width:1;stroke-miterlimit:4;stroke-dasharray:none;stroke-opacity:1"
       d="M 0 0 L 0 100 L 100 100 L 100 0 L 45.550781 0 A 23.000003 22.999999 0 0 1 47 7.9492188 A 23.000003 22.999999 0 0 1 24 30.949219 A 23.000003 22.999999 0 0 1 1 7.9492188 A 23.000003 22.999999 0 0 1 2.4355469 0 L 0 0 z M 5.1308594 0 A 18.400002 18.399999 0 0 0 3.3007812 7.9492188 A 18.400002 18.399999 0 0 0 21.699219 26.349609 A 18.400002 18.399999 0 0 0 40.099609 7.9492188 A 18.400002 18.399999 0 0 0 38.275391 0 L 5.1308594 0 z M 7.5527344 3.8515625 C 9.2594011 3.8515625 10.239495 4.6820052 10.548828 6.3886719 L 9.5351562 6.3886719 C 9.4178229 5.8126719 9.2587031 5.4834635 8.9707031 5.2167969 C 8.6507031 4.9181302 8.0648802 4.7246094 7.4355469 4.7246094 C 5.9315468 4.7246094 4.9921875 5.9525989 4.9921875 7.9472656 C 4.9921875 9.888599 5.9728645 11.125 7.5195312 11.125 C 8.3515313 11.125 9.0139844 10.763047 9.3339844 10.123047 C 9.4939844 9.8137135 9.6002135 9.4513021 9.6855469 8.9179688 L 10.708984 8.9179688 C 10.474318 10.976635 9.4084323 12 7.5097656 12 C 6.4964323 12 5.7281927 11.712417 5.1308594 11.09375 C 4.3948594 10.336417 4 9.2370313 4 7.9570312 C 4 6.6983645 4.3838906 5.5902656 5.0878906 4.8222656 C 5.6638906 4.1822656 6.507401 3.8515625 7.5527344 3.8515625 z M 35.046875 3.9785156 L 35.941406 3.9785156 L 35.941406 5.0996094 L 35.046875 5.0996094 L 35.046875 3.9785156 z M 37.443359 3.9785156 L 38.337891 3.9785156 L 38.337891 11.753906 L 37.443359 11.753906 L 37.443359 3.9785156 z M 14.097656 6.0058594 C 15.708323 6.0058594 16.636719 7.1142552 16.636719 9.0449219 C 16.636719 10.879589 15.675422 12 14.107422 12 C 12.518088 12 11.580078 10.879287 11.580078 9.0019531 C 11.580078 7.1246197 12.529656 6.0058594 14.097656 6.0058594 z M 20.558594 6.0058594 C 21.635927 6.0058594 22.328125 6.60325 22.328125 7.53125 L 22.328125 11.753906 L 21.443359 11.753906 L 21.443359 7.8828125 C 21.443359 7.2108125 20.995016 6.7832031 20.291016 6.7832031 C 19.373682 6.7832031 18.777344 7.5305416 18.777344 8.671875 L 18.777344 11.753906 L 17.880859 11.753906 L 17.880859 6.1660156 L 18.701172 6.1660156 L 18.701172 7.1035156 C 19.191839 6.3248489 19.726594 6.0058594 20.558594 6.0058594 z M 25.716797 6.0058594 C 27.007464 6.0058594 27.733474 6.6239896 27.744141 7.7226562 L 26.804688 7.7226562 C 26.783354 7.1359896 26.400214 6.8261719 25.685547 6.8261719 C 24.960214 6.8261719 24.5 7.1579219 24.5 7.6699219 C 24.5 8.0645886 24.809823 8.2980833 25.535156 8.46875 L 26.388672 8.671875 C 27.498005 8.9385417 27.966797 9.3965156 27.966797 10.228516 C 27.966797 11.305849 27.072063 12 25.664062 12 C 24.202729 12 23.47626 11.38051 23.433594 10.089844 L 24.373047 10.089844 C 24.42638 10.48451 24.49024 10.644687 24.628906 10.804688 C 24.852906 11.039354 25.258281 11.177734 25.738281 11.177734 C 26.516948 11.177734 27.039062 10.827354 27.039062 10.304688 C 27.039062 9.8993542 26.794448 9.674724 26.175781 9.5253906 L 25.34375 9.3222656 C 24.021083 9.0022656 23.572266 8.5875573 23.572266 7.7128906 C 23.572266 6.6782239 24.415464 6.0058594 25.716797 6.0058594 z M 31.390625 6.0058594 C 32.435958 6.0058594 33.289677 6.5592291 33.652344 7.4765625 C 33.812344 7.8925625 33.876953 8.4044791 33.876953 9.2578125 L 29.759766 9.2578125 C 29.770432 9.8124792 29.84526 10.133125 30.058594 10.453125 C 30.35726 10.922458 30.83701 11.177734 31.402344 11.177734 C 32.11701 11.177734 32.617948 10.794594 32.863281 10.058594 L 33.759766 10.058594 C 33.535766 11.274594 32.649141 12 31.369141 12 C 29.801141 12 28.832031 10.869823 28.832031 9.0351562 C 28.832031 7.2004895 29.833292 6.0058594 31.390625 6.0058594 z M 35.056641 6.1660156 L 35.941406 6.1660156 L 35.941406 11.753906 L 35.056641 11.753906 L 35.056641 6.1660156 z M 14.107422 6.8261719 C 13.115422 6.8261719 12.507812 7.6579531 12.507812 9.0019531 C 12.507813 10.35662 13.115422 11.177734 14.107422 11.177734 C 15.088755 11.177734 15.708984 10.347156 15.708984 9.0351562 C 15.708984 7.6484895 15.110089 6.8261719 14.107422 6.8261719 z M 31.380859 6.8261719 C 30.484859 6.8261719 29.855917 7.4985364 29.78125 8.5332031 L 32.916016 8.5332031 C 32.926682 8.5118698 32.927734 8.4900833 32.927734 8.46875 C 32.927734 7.5514166 32.255526 6.8261719 31.380859 6.8261719 z "
       id="rect1871" />
  </g>
  <g
     inkscape:groupmode="layer"
     id="layer15"
     inkscape:label="4"
     style="display:inline">
    <path
       inkscape:connector-curvature="0"
       id="path1018"
       d="M 100,1 C 73.333333,1 49.476647,7.0110096 40.371094,35.472656 37.262151,45.19042 26.666667,60.574219 0,60.574219 V 100 h 100 z"
       style="display:inline;opacity:1;fill:#ffffff;fill-opacity:1;stroke:none;stroke-width:1;stroke-miterlimit:4;stroke-dasharray:none;stroke-opacity:1;filter:url(#filter1030)" />
    <path
       style="display:inline;opacity:1;fill:#ffffff;fill-opacity:1;stroke:none;stroke-width:1;stroke-miterlimit:4;stroke-dasharray:none;stroke-opacity:1"
       d="M 100,1 C 73.333333,1 49.476647,7.0110096 40.371094,35.472656 37.262151,45.19042 26.666667,60.574219 0,60.574219 V 100 h 100 z"
       id="rect1951"
       inkscape:connector-curvature="0" />
  </g>
  <g
     inkscape:groupmode="layer"
     id="layer14"
     inkscape:label="3"
     style="display:none">
    <path
       style="display:inline;opacity:1;fill:#000000;fill-opacity:1;stroke:none;stroke-width:1;stroke-miterlimit:4;stroke-dasharray:none;stroke-opacity:1"
       d="m 100,5.3046875 c -26.666667,0 -43.333333,19.1210935 -50,39.1210935 -6.666667,20 -23.333333,30.675781 -50,30.675781 V 100 h 100 z"
       id="rect1931"
       inkscape:connector-curvature="0" />
  </g>
  <g
     inkscape:groupmode="layer"
     id="layer13"
     inkscape:label="2"
     style="display:inline">
    <path
       inkscape:connector-curvature="0"
       id="path1004"
       d="m 100,21.857422 c -11.737602,0 -18.549033,1.40378 -23.748047,6.408203 -5.199014,5.004423 -3.186644,16.572048 -6.773437,19.03125 C 62.185956,52.29685 57.380637,40.022151 54.054688,50 47.388018,70 26.666667,81.689453 0,81.689453 V 100 h 100 z"
       style="display:inline;opacity:1;fill:#6666ff;fill-opacity:1;stroke:none;stroke-width:1;stroke-miterlimit:4;stroke-dasharray:none;stroke-opacity:1;filter:url(#filter1016)" />
    <path
       style="display:inline;opacity:1;fill:#6666ff;fill-opacity:1;stroke:none;stroke-width:1;stroke-miterlimit:4;stroke-dasharray:none;stroke-opacity:1"
       d="M 100 21.857422 C 88.262398 21.857422 81.450967 23.261202 76.251953 28.265625 C 71.052939 33.270048 73.065309 44.837673 69.478516 47.296875 C 62.185956 52.29685 57.380637 40.022151 54.054688 50 C 47.388018 70 26.666667 81.689453 0 81.689453 L 0 100 L 60.666016 100 A 20 20 0 0 1 58.5 90.949219 A 20 20 0 0 1 78.5 70.949219 A 20 20 0 0 1 98.5 90.949219 A 20 20 0 0 1 96.310547 100 L 100 100 L 100 21.857422 z M 80.5 74.949219 A 16 16 0 0 0 64.5 90.949219 A 16 16 0 0 0 67.306641 100 L 93.671875 100 A 16 16 0 0 0 96.5 90.949219 A 16 16 0 0 0 80.5 74.949219 z M 66 85.898438 L 67.005859 85.898438 L 67.005859 92.800781 L 70.904297 92.800781 L 70.904297 93.673828 L 66 93.673828 L 66 85.898438 z M 71.873047 85.898438 L 72.783203 85.898438 L 72.783203 87.019531 L 71.873047 87.019531 L 71.873047 85.898438 z M 77.285156 85.898438 L 78.195312 85.898438 L 78.195312 87.019531 L 77.285156 87.019531 L 77.285156 85.898438 z M 74.490234 86.548828 L 75.388672 86.548828 L 75.388672 88.085938 L 76.318359 88.085938 L 76.318359 88.810547 L 75.388672 88.810547 L 75.388672 92.640625 C 75.388672 93.035279 75.495096 93.140625 75.884766 93.140625 C 76.057952 93.140625 76.199294 93.131608 76.318359 93.099609 L 76.318359 93.845703 C 76.015283 93.899035 75.798514 93.919922 75.582031 93.919922 C 74.878461 93.919922 74.490234 93.600471 74.490234 93.035156 L 74.490234 88.810547 L 73.720703 88.810547 L 73.720703 88.085938 L 74.490234 88.085938 L 74.490234 86.548828 z M 81.708984 87.925781 C 82.434203 87.925781 82.986792 88.235173 83.441406 88.896484 L 83.441406 88.085938 L 84.273438 88.085938 L 84.273438 92.757812 C 84.273437 94.069769 84.112654 94.773173 83.679688 95.285156 C 83.311666 95.733141 82.586472 96 81.742188 96 C 80.410816 96 79.575933 95.370418 79.478516 94.314453 L 80.398438 94.314453 C 80.452558 94.645109 80.540435 94.795083 80.746094 94.955078 C 80.995049 95.147072 81.362119 95.253906 81.773438 95.253906 C 82.32547 95.253906 82.791165 95.061125 83.029297 94.730469 C 83.256604 94.421146 83.353516 93.962386 83.353516 93.205078 L 83.353516 92.917969 C 82.84478 93.621946 82.347207 93.919922 81.632812 93.919922 C 81.037484 93.919922 80.431908 93.643146 80.009766 93.173828 C 79.544327 92.640512 79.294922 91.893866 79.294922 90.976562 C 79.294922 89.163289 80.269371 87.925781 81.708984 87.925781 z M 88.037109 87.925781 C 89.097877 87.925781 89.96401 88.481134 90.332031 89.398438 C 90.494394 89.814424 90.558594 90.326382 90.558594 91.179688 L 86.380859 91.179688 C 86.391684 91.734336 86.467111 92.053057 86.683594 92.373047 C 86.98667 92.842365 87.475148 93.099609 88.048828 93.099609 C 88.774047 93.099609 89.282294 92.714491 89.53125 91.978516 L 90.439453 91.978516 C 90.212146 93.194476 89.314524 93.919922 88.015625 93.919922 C 86.424474 93.919922 85.439453 92.789684 85.439453 90.955078 C 85.439453 89.120472 86.456782 87.925781 88.037109 87.925781 z M 93.716797 87.925781 C 95.02652 87.925781 95.762613 88.543948 95.773438 89.642578 L 94.820312 89.642578 C 94.798664 89.055931 94.408812 88.746094 93.683594 88.746094 C 92.947551 88.746094 92.482422 89.077861 92.482422 89.589844 C 92.482422 89.984497 92.795207 90.218011 93.53125 90.388672 L 94.398438 90.591797 C 95.52415 90.858455 96 91.318418 96 92.150391 C 96 93.227688 95.090898 93.919922 93.662109 93.919922 C 92.1792 93.919922 91.443687 93.302343 91.400391 92.011719 L 92.351562 92.011719 C 92.405683 92.406372 92.470614 92.564615 92.611328 92.724609 C 92.838635 92.959268 93.251194 93.099609 93.738281 93.099609 C 94.528445 93.099609 95.058594 92.747259 95.058594 92.224609 C 95.058594 91.819289 94.809442 91.594641 94.181641 91.445312 L 93.337891 91.242188 C 91.995695 90.922198 91.541016 90.50745 91.541016 89.632812 C 91.541016 88.59818 92.39625 87.925781 93.716797 87.925781 z M 71.884766 88.085938 L 72.783203 88.085938 L 72.783203 93.673828 L 71.884766 93.673828 L 71.884766 88.085938 z M 77.296875 88.085938 L 78.195312 88.085938 L 78.195312 93.673828 L 77.296875 93.673828 L 77.296875 88.085938 z M 81.806641 88.746094 C 80.843291 88.746094 80.236328 89.577919 80.236328 90.921875 C 80.236328 92.276497 80.831408 93.099609 81.816406 93.099609 C 82.768932 93.099609 83.353516 92.288367 83.353516 90.955078 C 83.353516 89.557791 82.780815 88.746094 81.806641 88.746094 z M 88.027344 88.746094 C 87.118114 88.746094 86.478113 89.418492 86.402344 90.453125 L 89.585938 90.453125 C 89.596762 90.431792 89.595703 90.410005 89.595703 90.388672 C 89.595703 89.471369 88.914925 88.746094 88.027344 88.746094 z "
       id="rect1909" />
  </g>
  <g
     inkscape:groupmode="layer"
     id="layer12"
     inkscape:label="1"
     style="display:none">
    <path
       style="display:inline;opacity:1;fill:#000000;fill-opacity:1;stroke:none;stroke-width:1;stroke-miterlimit:4;stroke-dasharray:none;stroke-opacity:1"
       d="m 100,42.634766 c -26.666667,0 -51.778647,24.021484 -58.445312,44.021484 C 34.888019,106.65626 26.666667,84.898438 0,84.898438 V 100 h 100 z"
       id="rect1900"
       inkscape:connector-curvature="0" />
  </g>
  <g
     inkscape:groupmode="layer"
     id="layer2"
     inkscape:label="drop"
     style="display:none">
    <ellipse
       style="opacity:1;fill:#000000;fill-opacity:1;stroke:none;stroke-width:0.30000001;stroke-miterlimit:4;stroke-dasharray:none;stroke-opacity:1"
       id="path1741"
       cx="70"
       cy="65"
       rx="4"
       ry="5" />
  </g>
  <g
     inkscape:groupmode="layer"
     id="layer9"
     inkscape:label="circles"
     style="display:none">
    <path
       style="display:inline;opacity:1;fill:#000000;fill-opacity:1;stroke:none;stroke-width:0.30000001;stroke-miterlimit:4;stroke-dasharray:none;stroke-opacity:1"
       d="m 78.5,70.949219 a 20,20 0 0 0 -20,20 A 20,20 0 0 0 60.666016,100 h 6.640625 A 16,16 0 0 1 64.5,90.949219 a 16,16 0 0 1 16,-16 16,16 0 0 1 16,16 A 16,16 0 0 1 93.671875,100 h 2.638672 A 20,20 0 0 0 98.5,90.949219 a 20,20 0 0 0 -20,-20 z"
       id="rect1193"
       inkscape:connector-curvature="0" />
    <path
       style="display:inline;opacity:1;fill:#000000;fill-opacity:1;stroke:none;stroke-width:0.30000001;stroke-miterlimit:4;stroke-dasharray:none;stroke-opacity:1"
       d="M 2.4355469,0 A 23.000003,22.999999 0 0 0 1,7.9492188 23.000003,22.999999 0 0 0 24,30.949219 23.000003,22.999999 0 0 0 47,7.9492188 23.000003,22.999999 0 0 0 45.550781,0 h -7.27539 A 18.400002,18.399999 0 0 1 40.099609,7.9492188 18.400002,18.399999 0 0 1 21.699219,26.349609 18.400002,18.399999 0 0 1 3.3007812,7.9492188 18.400002,18.399999 0 0 1 5.1308594,0 Z"
       id="rect1195"
       inkscape:connector-curvature="0" />
  </g>
  <g
     inkscape:groupmode="layer"
     id="layer8"
     inkscape:label="titles"
     style="display:none">
    <text
       xml:space="preserve"
       style="font-style:normal;font-variant:normal;font-weight:normal;font-stretch:normal;font-size:10.74494648px;line-height:1.25;font-family:'Nimbus Sans L';-inkscape-font-specification:'Nimbus Sans L';letter-spacing:0px;word-spacing:0px;display:inline;fill:#000000;fill-opacity:1;stroke:none;stroke-width:1.00733864"
       x="64.657417"
       y="94.365311"
       id="text166"
       transform="scale(1.007372,0.99268198)"
       inkscape:export-filename="/home/flatline/images/travail/waves/paper/waves/two-tone/blue-red_white.png"
       inkscape:export-xdpi="96"
       inkscape:export-ydpi="96"><tspan
         sodipodi:role="line"
         x="64.657417"
         y="94.365311"
         id="tspan168"
         style="fill:#000000;fill-opacity:1;stroke-width:1.00733864">Litiges</tspan></text>
    <text
       xml:space="preserve"
       style="font-style:normal;font-variant:normal;font-weight:normal;font-stretch:normal;font-size:10.66666698px;line-height:1.25;font-family:'Nimbus Sans L';-inkscape-font-specification:'Nimbus Sans L';letter-spacing:0px;word-spacing:0px;display:inline;fill:#000000;fill-opacity:1;stroke:none"
       x="3.4879999"
       y="11.754666"
       id="text172"
       inkscape:export-filename="/home/flatline/images/travail/waves/paper/waves/two-tone/blue-red_white.png"
       inkscape:export-xdpi="96"
       inkscape:export-ydpi="96"><tspan
         sodipodi:role="line"
         id="tspan170"
         x="3.4879999"
         y="11.754666">Conseil</tspan></text>
  </g>
</svg>
