<?xml version="1.0" encoding="UTF-8" standalone="no"?>
<svg
   xmlns:dc="http://purl.org/dc/elements/1.1/"
   xmlns:cc="http://creativecommons.org/ns#"
   xmlns:rdf="http://www.w3.org/1999/02/22-rdf-syntax-ns#"
   xmlns:svg="http://www.w3.org/2000/svg"
   xmlns="http://www.w3.org/2000/svg"
   xmlns:sodipodi="http://sodipodi.sourceforge.net/DTD/sodipodi-0.dtd"
   xmlns:inkscape="http://www.inkscape.org/namespaces/inkscape"
   height="214.60234"
   width="199.47388"
   version="1.1"
   viewBox="0 0 199.47388 214.60234"
   id="svg900"
   sodipodi:docname="back-arch.svg"
   inkscape:version="1.0.2 (e86c870879, 2021-01-15)">
  <metadata
     id="metadata906">
    <rdf:RDF>
      <cc:Work
         rdf:about="">
        <dc:format>image/svg+xml</dc:format>
        <dc:type
           rdf:resource="http://purl.org/dc/dcmitype/StillImage" />
        <dc:title></dc:title>
      </cc:Work>
    </rdf:RDF>
  </metadata>
  <defs
     id="defs904" />
  <sodipodi:namedview
     pagecolor="#ffffff"
     bordercolor="#666666"
     borderopacity="1"
     objecttolerance="10"
     gridtolerance="10"
     guidetolerance="10"
     inkscape:pageopacity="0"
     inkscape:pageshadow="2"
     inkscape:window-width="1920"
     inkscape:window-height="1080"
     id="namedview902"
     showgrid="false"
     inkscape:pagecheckerboard="true"
     inkscape:zoom="2.8284271"
     inkscape:cx="64.27708"
     inkscape:cy="61.971788"
     inkscape:window-x="0"
     inkscape:window-y="0"
     inkscape:window-maximized="0"
     inkscape:current-layer="layer1"
     borderlayer="true"
     inkscape:showpageshadow="false"
     inkscape:document-rotation="0"
     showguides="true"
     inkscape:guide-bbox="true">
    <sodipodi:guide
       position="-16.21948,249.67514"
       orientation="0,1"
       id="guide1528"
       inkscape:label=""
       inkscape:locked="false"
       inkscape:color="rgb(0,0,255)" />
  </sodipodi:namedview>
  <g
     inkscape:groupmode="layer"
     id="layer1"
     inkscape:label="shadow"
     style="display:inline"
     transform="translate(-77.748021,-17.025596)">
    <path
       inkscape:connector-curvature="0"
       id="path4751"
       d="M 177.5055,231.438 C 147.39124,154.11466 117.19968,104.32135 79.0645,34.561996 c 31.201,18.01 55.401,29.1 77.941,33.34 0.27396,10.243024 0.85165,14.065562 1.87441,18.555078 5.75962,26.052506 7.58559,31.174926 19.90559,30.134926 12.32,-1.04 9.77292,-10.66132 15.93833,-27.986581 1.26477,-3.542041 -0.46816,-10.916776 1.72845,-20.374877 22.29,-4.37 48.72322,-15.908546 79.48322,-33.668546 -33.80599,62.19305 -74.97123,136.787674 -98.43,196.870004 z"
       style="fill:#000000;fill-opacity:1;stroke:#000000;stroke-opacity:1"
       sodipodi:nodetypes="ccccsccccc" />
  </g>
  <g
     inkscape:groupmode="layer"
     id="layer3"
     inkscape:label="border"
     style="display:inline"
     transform="translate(-77.748021,-17.025596)">
    <path
       sodipodi:nodetypes="ccccc"
       style="display:inline;fill:#000000;fill-opacity:1;stroke-width:1.17815"
       d="M 179.23049,175.86578 C 148.01909,82.577931 159.25371,67.232711 156.45203,17.025596 c 20.15373,7.379033 29.14765,5.878039 49.37098,0 -17.01097,61.170651 5.62256,96.500194 -26.59252,158.833114 z"
       id="path4757"
       inkscape:connector-curvature="0" />
  </g>
  <g
     inkscape:groupmode="layer"
     id="layer2"
     inkscape:label="archlinux"
     style="display:inline"
     transform="translate(-77.748021,-17.025596)">
    <path
       style="fill:#1793d1;fill-opacity:1;stroke:#000000;stroke-opacity:1"
       d="m 177.5055,231.438 c -8.77,-21.486 -14.06,-35.559 -23.82,-56.406 5.99,-6.342 13.33,-13.691 25.25,-22.032 -12.82,5.276 -21.55,10.535 -28.09,16.032 -12.49,-26.057 -32.08,-63.138 -71.781,-134.470004 31.201,18.01 55.401,29.1 77.941,33.34 -0.485,2.08 1.10052,3.555165 -19.455,7.380945 18.69906,-0.371414 18.94052,1.011355 18.89599,8.044265 l -12.59336,6.120081 c 0,0 15.64835,-6.324706 16.4515,3.736736 -0.5872,4.07808 3.0579,1.413949 -12.64444,17.778777 17.10878,-15.051216 11.34594,-5.90375 21.34604,-2.35281 9.91486,3.52067 1.97422,15.10517 4.56566,15.62277 0,0 1.19003,-13.91293 11.82742,-17.28849 11.40071,-3.61779 9.65262,11.05646 11.8634,9.14925 2.21077,-1.90722 -8.6433,-8.86215 -2.71962,-17.61401 1.06725,-1.5768 14.00255,0.722995 15.72722,0.107198 10.52653,-3.758506 -22.43487,4.082992 -10.80509,-5.603803 7.428,-6.187008 8.57927,-3.962525 14.34519,-7.952598 2.96358,-2.050832 -19.26732,13.449203 -14.56238,-7.339992 3.64002,-12.630184 10.67703,-6.787374 15.47735,-7.783606 -1.07622,-1.753894 -15.41991,-0.479713 -15.78991,-2.154713 22.29,-4.37 46.24,-15.43 77,-33.19 -6.07,11.17 -11.51,21.22 -16.68,30.81 -8.15,6.32 -16.63,14.54 -33.97,23.44 11.91,-3.1 20.47,-6.66 27.12,-10.66 -52.6,97.938004 -56.87,110.950004 -74.9,153.280004 z"
       id="path986"
       inkscape:connector-curvature="0"
       sodipodi:nodetypes="cccccccccccscscssssccccccccc" />
  </g>
</svg>
