<?xml version="1.0" encoding="UTF-8" standalone="no"?>
<svg
   xmlns:dc="http://purl.org/dc/elements/1.1/"
   xmlns:cc="http://creativecommons.org/ns#"
   xmlns:rdf="http://www.w3.org/1999/02/22-rdf-syntax-ns#"
   xmlns:svg="http://www.w3.org/2000/svg"
   xmlns="http://www.w3.org/2000/svg"
   xmlns:xlink="http://www.w3.org/1999/xlink"
   xmlns:sodipodi="http://sodipodi.sourceforge.net/DTD/sodipodi-0.dtd"
   xmlns:inkscape="http://www.inkscape.org/namespaces/inkscape"
   height="289.69257"
   width="256.45343"
   version="1.1"
   viewBox="0 0 256.45343 289.69257"
   id="svg900"
   sodipodi:docname="shuriken.svg"
   inkscape:version="1.0.2 (e86c870879, 2021-01-15)">
  <metadata
     id="metadata906">
    <rdf:RDF>
      <cc:Work
         rdf:about="">
        <dc:format>image/svg+xml</dc:format>
        <dc:type
           rdf:resource="http://purl.org/dc/dcmitype/StillImage" />
        <dc:title></dc:title>
      </cc:Work>
    </rdf:RDF>
  </metadata>
  <defs
     id="defs904">
    <linearGradient
       inkscape:collect="always"
       id="linearGradient1307">
      <stop
         style="stop-color:#000000;stop-opacity:1"
         offset="0"
         id="stop1303" />
      <stop
         style="stop-color:#ffffff;stop-opacity:1"
         offset="1"
         id="stop1305" />
    </linearGradient>
    <linearGradient
       inkscape:collect="always"
       id="linearGradient1299">
      <stop
         style="stop-color:#000000;stop-opacity:1"
         offset="0"
         id="stop1295" />
      <stop
         style="stop-color:#ffffff;stop-opacity:1"
         offset="1"
         id="stop1297" />
    </linearGradient>
    <linearGradient
       inkscape:collect="always"
       id="linearGradient1267">
      <stop
         style="stop-color:#000000;stop-opacity:1"
         offset="0"
         id="stop1263" />
      <stop
         style="stop-color:#ffffff;stop-opacity:1"
         offset="1"
         id="stop1265" />
    </linearGradient>
    <radialGradient
       inkscape:collect="always"
       xlink:href="#linearGradient1267"
       id="radialGradient1269"
       cx="128"
       cy="130.48224"
       fx="128"
       fy="130.48224"
       r="61.125"
       gradientTransform="matrix(1.3174624,-0.32346014,1.2256356,4.9920489,-200.55887,-449.97081)"
       gradientUnits="userSpaceOnUse" />
    <radialGradient
       inkscape:collect="always"
       xlink:href="#linearGradient1299"
       id="radialGradient1301"
       cx="128"
       cy="152.7921"
       fx="128"
       fy="152.7921"
       r="71.245522"
       gradientTransform="matrix(-1.0107252,-0.98361454,2.9953094,-3.077867,-200.28679,756.17644)"
       gradientUnits="userSpaceOnUse" />
    <radialGradient
       inkscape:collect="always"
       xlink:href="#linearGradient1307"
       id="radialGradient1309"
       cx="128"
       cy="160.00444"
       fx="128"
       fy="160.00444"
       r="49.806229"
       gradientTransform="matrix(5.0168856,3.291413,-0.31571799,0.48122487,-463.64508,-338.29899)"
       gradientUnits="userSpaceOnUse" />
  </defs>
  <sodipodi:namedview
     pagecolor="#ffffff"
     bordercolor="#666666"
     borderopacity="1"
     objecttolerance="10"
     gridtolerance="10"
     guidetolerance="10"
     inkscape:pageopacity="0"
     inkscape:pageshadow="2"
     inkscape:window-width="1920"
     inkscape:window-height="1080"
     id="namedview902"
     showgrid="false"
     inkscape:pagecheckerboard="true"
     inkscape:zoom="1.552445"
     inkscape:cx="123.88527"
     inkscape:cy="190.87633"
     inkscape:window-x="0"
     inkscape:window-y="0"
     inkscape:window-maximized="0"
     inkscape:current-layer="layer1"
     borderlayer="true"
     inkscape:showpageshadow="false"
     inkscape:document-rotation="0"
     showguides="true"
     inkscape:guide-bbox="true">
    <sodipodi:guide
       position="135.39044,263.82919"
       orientation="0,1"
       id="guide1251"
       inkscape:label=""
       inkscape:locked="false"
       inkscape:color="rgb(0,0,255)" />
    <sodipodi:guide
       position="135.39044,295.82919"
       orientation="-1,0"
       id="guide1253"
       inkscape:label=""
       inkscape:locked="false"
       inkscape:color="rgb(0,0,255)" />
  </sodipodi:namedview>
  <g
     inkscape:groupmode="layer"
     id="layer1"
     inkscape:label="shadow"
     style="display:inline"
     transform="translate(7.39044,22.243225)">
    <path
       inkscape:connector-curvature="0"
       id="path4751"
       d="M 128.02052,28.988356 C 97.90626,106.3117 67.7147,156.10501 29.57952,225.86436 c 31.201,-18.01 55.401,-29.1 77.941,-33.34 -0.9495,-5.17175 -1.58234,-9.74766 -1.44,-14.35 0.49,-19.99 10.9,-35.38 23.22,-34.34 12.32,1.04 21.9,18.13 21.4,38.12 -0.09,3.76 -0.51,7.37 -1.25,10.72 22.29,4.37 46.24,15.43 77,33.19 -33.80599,-62.19305 -74.97123,-136.787681 -98.43,-196.870004 z"
       style="fill:#000000;fill-opacity:1"
       sodipodi:nodetypes="ccccsccccc" />
  </g>
  <g
     inkscape:groupmode="layer"
     id="layer3"
     inkscape:label="blades"
     style="display:inline"
     transform="translate(7.39044,22.243225)">
    <g
       inkscape:groupmode="layer"
       id="layer6"
       inkscape:label="3"
       style="display:inline">
      <path
         sodipodi:nodetypes="ccccc"
         style="display:inline;mix-blend-mode:normal;fill:url(#radialGradient1269);fill-opacity:1;stroke:none;stroke-width:1;stroke-miterlimit:4;stroke-dasharray:none;stroke-opacity:1"
         d="m 142.99483,-22.243225 c -14.97431,51.237581 -13.18952,53.02365 -38.79431,107.637581 29.72565,34.726284 75.46961,96.669474 122.25,140.470004 C 184.38961,147.4534 153.55005,65.838924 142.99483,-22.236157 Z"
         id="path1684"
         inkscape:connector-curvature="0" />
    </g>
    <g
       inkscape:groupmode="layer"
       id="layer5"
       inkscape:label="2">
      <path
         sodipodi:nodetypes="ccccc"
         style="display:inline;fill:url(#radialGradient1309);fill-opacity:1;stroke:none;stroke-width:1.17815;stroke-opacity:1"
         d="m 209.77052,195.04729 c -33.97,-23.43293 -51.46271,-46.14311 -60.32,-2.37293 62.01582,33.63187 51.50801,27.58926 99.61246,74.77497 -39.29246,-72.40204 0,0 -39.29246,-72.39497 z"
         id="path1682"
         inkscape:connector-curvature="0" />
    </g>
    <g
       inkscape:groupmode="layer"
       id="layer4"
       inkscape:label="1"
       style="display:inline">
      <path
         sodipodi:nodetypes="ccccc"
         style="display:inline;fill:url(#radialGradient1301);fill-opacity:1;stroke:none;stroke-width:1.17815;stroke-opacity:1"
         d="M 128.02052,28.987288 C 92.5415,120.08553 47.330902,177.81793 -7.39044,250.65251 c 64.06329,-44.90699 88.267,-51.85206 114.91096,-58.12815 -15.10164,-38.40676 48.13787,-92.744214 20.5,-163.530004 z"
         id="path4757"
         inkscape:connector-curvature="0" />
    </g>
  </g>
  <g
     inkscape:groupmode="layer"
     id="layer2"
     inkscape:label="archlinux"
     style="display:inline"
     transform="translate(7.39044,22.243225)">
    <path
       style="fill:#1793d1;fill-opacity:1;stroke:#666666;stroke-width:1;stroke-miterlimit:4;stroke-dasharray:none;stroke-opacity:1"
       d="m 128.02052,28.988356 c -8.77,21.486 -14.06,35.559 -23.82,56.406 5.99,6.342 13.33,13.691 25.25,22.032004 -12.82,-5.276 -21.55,-10.535004 -28.09,-16.032004 -12.489995,26.057004 -32.079995,63.138004 -71.780995,134.470004 31.201,-18.01 55.401,-29.1 77.940995,-33.34 -0.97,-4.16 -1.51,-8.68 -1.47,-13.38 l 0.03,-0.97 c 0.49,-19.99 10.9,-35.38 23.22,-34.34 12.32,1.04 21.9,18.13 21.4,38.12 -0.09,3.76 -0.51,7.37 -1.25,10.72 22.29,4.37 46.24,15.43 77,33.19 -6.07,-11.17 -11.51,-21.22 -16.68,-30.81 -8.15,-6.32 -16.63,-14.54 -33.97,-23.44 11.91,3.1 20.47,6.66 27.12,10.66 -52.6,-97.938004 -56.87,-110.950004 -74.9,-153.280004 z"
       id="path986"
       inkscape:connector-curvature="0" />
  </g>
</svg>
