<svg xmlns="http://www.w3.org/2000/svg" width="512" height="512">
  <path d="M512 384L256 512 0 384V128L256 0l256 128z"/>
  <path d="M235.948 64v47.84l-39.34-20.781-19.972 31.501 59.312 31.391v70.603l-66.625-35.173-.12-62.892-39.864.073.08 41.781-45.488-24.011L64 175.87l45.368 23.938-39.38 20.707 19.85 31.575 59.433-31.245 66.866 35.283-66.625 35.136-59.674-31.354-19.85 31.575 39.621 20.854-45.488 23.975 19.93 31.538 45.369-23.938-.08 41.524 39.862.073.12-62.635 66.867-35.246v70.272l-59.553 31.538 19.972 31.501 39.581-20.927V448h39.863v-47.84l39.34 20.781 19.972-31.501-59.312-31.391v-70.603l66.625 35.173.12 62.893 39.863-.074-.08-41.781 45.489 24.012L448 336.13l-45.368-23.939 39.38-20.707-19.85-31.574-59.393 31.244-66.906-35.283 66.665-35.173 59.634 31.391 19.85-31.574-39.621-20.854 45.488-23.975-19.93-31.538-45.369 23.938.08-41.525-39.862-.073-.12 62.635-66.867 35.247v-70.273l59.553-31.538-19.972-31.501-39.581 20.927V64z" fill="#fff"/>
</svg>
