<?xml version="1.0" encoding="UTF-8" standalone="no"?>
<svg
   xmlns:dc="http://purl.org/dc/elements/1.1/"
   xmlns:cc="http://creativecommons.org/ns#"
   xmlns:rdf="http://www.w3.org/1999/02/22-rdf-syntax-ns#"
   xmlns:svg="http://www.w3.org/2000/svg"
   xmlns="http://www.w3.org/2000/svg"
   width="512"
   height="512"
   version="1.1"
   id="svg867">
  <metadata
     id="metadata873">
    <rdf:RDF>
      <cc:Work
         rdf:about="">
        <dc:format>image/svg+xml</dc:format>
        <dc:type
           rdf:resource="http://purl.org/dc/dcmitype/StillImage" />
        <dc:title></dc:title>
      </cc:Work>
    </rdf:RDF>
  </metadata>
  <defs
     id="defs871" />
  <path
     id="path863"
     d="M 256 0 L 0 128 L 0 384 L 256 512 L 512 384 L 512 128 L 256 0 z M 235.94727 64 L 275.81055 64 L 275.81055 111.98438 L 315.39258 91.058594 L 335.36328 122.55859 L 275.81055 154.09766 L 275.81055 224.36914 L 342.67773 189.12305 L 342.79883 126.48828 L 382.66016 126.56055 L 382.58008 168.08594 L 427.94922 144.14844 L 447.87891 175.68555 L 402.39062 199.66016 L 442.01172 220.51562 L 422.16211 252.08984 L 362.52734 220.69727 L 295.86328 255.87109 L 362.76953 291.1543 L 422.16211 259.91016 L 442.01172 291.48438 L 402.63281 312.19141 L 448 336.13086 L 428.06836 367.66992 L 382.58008 343.65625 L 382.66016 385.4375 L 342.79688 385.51172 L 342.67773 322.61914 L 276.05273 287.44531 L 276.05273 358.04883 L 335.36328 389.43945 L 315.39258 420.94141 L 276.05273 400.16016 L 276.05273 448 L 236.18945 448 L 236.18945 400.01367 L 196.60742 420.94141 L 176.63672 389.43945 L 236.18945 357.90234 L 236.18945 287.63086 L 169.32227 322.87695 L 169.20117 385.51172 L 129.33984 385.4375 L 129.41992 343.91406 L 84.050781 367.85156 L 64.121094 336.31445 L 109.60938 312.33984 L 69.988281 291.48438 L 89.837891 259.91016 L 149.51172 291.26367 L 216.13672 256.12891 L 149.27148 220.8457 L 89.837891 252.08984 L 69.988281 220.51562 L 109.36719 199.80859 L 64 175.86914 L 83.931641 144.33203 L 129.41992 168.34375 L 129.33984 126.5625 L 169.20312 126.48828 L 169.32227 189.38086 L 235.94727 224.55469 L 235.94727 153.95117 L 176.63672 122.56055 L 196.60742 91.058594 L 235.94727 111.83984 L 235.94727 64 z " />
</svg>
