<?xml version="1.0" encoding="UTF-8" standalone="no"?>
<svg
   xmlns:dc="http://purl.org/dc/elements/1.1/"
   xmlns:cc="http://creativecommons.org/ns#"
   xmlns:rdf="http://www.w3.org/1999/02/22-rdf-syntax-ns#"
   xmlns:svg="http://www.w3.org/2000/svg"
   xmlns="http://www.w3.org/2000/svg"
   width="2800"
   height="2800"
   viewBox="0 0 740.833 740.833"
   version="1.1"
   id="svg1267">
  <metadata
     id="metadata1273">
    <rdf:RDF>
      <cc:Work
         rdf:about="">
        <dc:format>image/svg+xml</dc:format>
        <dc:type
           rdf:resource="http://purl.org/dc/dcmitype/StillImage" />
        <dc:title></dc:title>
      </cc:Work>
    </rdf:RDF>
  </metadata>
  <defs
     id="defs1271" />
  <g
     aria-label="CIE"
     transform="translate(0 443.834)"
     id="text1265"
     style="font-weight:400;font-size:2.822px;line-height:1000;font-family:'Century Schoolbook L';-inkscape-font-specification:'Century Schoolbook L';letter-spacing:0;word-spacing:0;fill:#000000;stroke-width:0.265">
    <path
       d="M 269.57506,-204.65028 H 254.4056 l -19.05001,17.28612 c -23.28335,-14.11112 -39.15836,-18.69724 -64.55838,-18.69724 -39.51114,0 -72.319492,13.40557 -97.719509,40.56948 -23.988905,25.40001 -35.63058,56.79726 -35.63058,95.250059 0,36.688914 10.583341,65.6167113 33.513911,90.66395 24.341684,26.81113 53.975038,38.805582 95.602838,38.805582 62.44171,0 98.07229,-29.986131 111.83064,-93.486174 l -21.87224,-5.29167 c -9.52501,49.0361439 -37.74725,76.905607 -78.31672,76.905607 -47.97781,0 -70.5556,-36.3361354 -70.5556,-113.947299 0,-73.377825 22.57779,-111.125075 65.96948,-111.125075 39.15836,0 64.91116,27.16391 80.78617,86.07784 l 18.69724,-2.11667 z"
       style="font-weight:700;font-size:352.778px"
       id="path1293" />
    <path
       d="M 307.67503,53.936001 H 444.90568 V 34.885988 h -5.29167 c -19.05002,0 -26.10558,-1.411112 -29.28058,-5.29167 -2.46945,-3.52778 -2.46945,-4.586114 -2.46945,-26.4583514 V -149.96969 c 0,-21.87224 0,-22.93057 2.46945,-26.45835 3.175,-3.88056 10.23056,-5.29167 29.28058,-5.29167 h 5.29167 v -19.05002 H 307.67503 v 19.05002 h 5.29167 c 18.69723,0 25.75279,1.41111 28.9278,5.29167 2.46944,3.52778 2.46944,4.58611 2.46944,26.45835 V 3.1359666 c 0,21.8722374 0,22.9305714 -2.46944,26.4583514 -3.17501,3.880558 -10.23057,5.29167 -28.9278,5.29167 h -5.29167 z"
       style="font-weight:700;font-size:352.778px"
       id="path1295" />
    <path
       d="M 696.78861,-200.76973 H 460.07456 v 19.05002 h 5.29168 c 18.69723,0 25.75279,1.41111 28.92779,5.29167 2.46945,3.52778 2.46945,4.58611 2.46945,26.45835 V 3.1359666 c 0,21.8722374 0,22.9305714 -2.46945,26.4583514 -3.175,3.880558 -10.23056,5.29167 -28.92779,5.29167 h -5.29168 v 19.050013 h 239.53628 l 4.23333,-94.897286 H 685.14694 C 671.74137,10.191527 645.28302,34.53321 602.59688,34.885988 H 592.01354 C 566.26075,35.591544 559.91074,30.652652 560.26352,9.8387489 V -68.125192 h 5.99723 c 27.86946,0 44.80281,17.6389 48.68336,50.094478 h 19.05002 V -137.62246 h -19.05002 c -3.88055,32.45558 -20.8139,50.094477 -48.68336,50.094477 h -5.99723 V -151.3808 c -0.70555,-24.69447 4.23334,-29.98614 30.33891,-30.33891 h 9.87778 c 44.09726,1.05833 65.26394,20.10834 80.08061,72.67227 h 18.34446 z"
       style="font-weight:700;font-size:352.778px"
       id="path1297" />
  </g>
</svg>
