<?xml version="1.0" encoding="UTF-8" standalone="no"?>
<svg
   xmlns:dc="http://purl.org/dc/elements/1.1/"
   xmlns:cc="http://creativecommons.org/ns#"
   xmlns:rdf="http://www.w3.org/1999/02/22-rdf-syntax-ns#"
   xmlns:svg="http://www.w3.org/2000/svg"
   xmlns="http://www.w3.org/2000/svg"
   width="2800"
   height="2800"
   version="1.1"
   id="svg2244">
  <metadata
     id="metadata2250">
    <rdf:RDF>
      <cc:Work
         rdf:about="">
        <dc:format>image/svg+xml</dc:format>
        <dc:type
           rdf:resource="http://purl.org/dc/dcmitype/StillImage" />
        <dc:title></dc:title>
      </cc:Work>
    </rdf:RDF>
  </metadata>
  <defs
     id="defs2248" />
  <path
     id="path2240"
     d="M 250 300 L 250 2800 L 2250 2800 L 2250 2490.8652 C 2207.5323 2495.251 2060.1858 2497.4999 1793.2852 2498.002 C 1339.3602 2498.854 1263.4191 2496.313 1230.9961 2479.168 C 1062.5701 2390.104 819.13637 2214.0884 680.98438 2081.4824 L 586.46484 1990.7578 L 632.58203 1943.0332 L 678.70117 1895.3105 L 614.35156 1824.1621 L 550 1753.0156 L 550 1462.9922 L 627.10352 1561.6738 C 912.62852 1927.1058 1331.018 2221.1682 1780.791 2372.5352 C 1911.8174 2416.6309 1986.7016 2434.4847 2250 2484.1738 L 2250 2329.8418 C 1789.7974 2271.5232 1329.7324 2055.2222 981.08789 1732.207 L 908.73438 1665.1738 L 955.53516 1616.7441 L 1002.3379 1568.3145 L 906.89648 1456.5059 C 791.61848 1321.4579 696.49133 1180.7333 612.86133 1021.5293 L 550.48047 902.77734 L 551.36133 574.49414 C 551.80612 408.87018 552.07622 327.18474 554.58008 300 L 250 300 z M 561.18945 300 C 563.53412 309.95715 566.47038 326.30853 570.18555 347.22266 C 723.6747 1211.2448 1409.7233 1881.0202 2250 2011.8945 L 2250 1861.9375 C 1462.391 1732.2933 829.36997 1089.9037 709.12695 300 L 561.18945 300 z M 1170.1465 300 C 1188.6482 380.76853 1213.1515 464.8175 1238.8125 530.43555 C 1288.0225 656.26955 1393.2307 829.27761 1483.2227 932.34961 L 1548.0195 1006.5625 L 1499.0312 1054.8984 C 1451.9543 1101.3484 1450.8917 1104.1892 1471.7227 1127.7012 C 1510.4527 1171.4152 1691.119 1307.8764 1780.793 1361.1484 C 1918.9469 1443.2195 2081.3207 1504.6894 2250 1539.791 L 2250 1245.9082 C 1828.9659 1142.6312 1484.1535 824.56863 1344.4824 401.43164 C 1333.4016 367.86242 1323.9862 334.69084 1315.8457 300 L 1170.1465 300 z M 1788.7266 300 C 1816.39 367.94895 1854.1087 432.89195 1905.5039 503.4043 L 1964.123 583.83008 L 1919.2832 630.23242 L 1874.4453 676.63281 L 1921.332 721.60938 C 2007.8868 804.63686 2124.1406 872.62833 2250 916.58984 L 2250 607.26953 C 2118.281 540.53606 2012.0922 432.28195 1946.9688 300 L 1788.7266 300 z M 550 2155.6348 L 609.35352 2211.2148 C 687.99952 2284.8598 760.45341 2343.3504 879.31641 2429.1504 L 977.46875 2500 L 550 2500 L 550 2327.8164 L 550 2155.6348 z " />
  <path
     id="path2242"
     d="M 683.63086 0 L 691.74219 135.73047 C 695.05163 191.10122 700.89097 245.89596 709.12695 300 L 1170.1465 300 C 1150.3831 213.72335 1137.4694 131.19184 1137.3945 78.914062 L 1137.2812 0 L 683.63086 0 z M 1273.4883 0 L 1281.3594 78.914062 C 1290.05 166.06536 1300.7463 235.6538 1315.8457 300 L 1788.7266 300 C 1763.3208 237.59653 1746.3951 172.65774 1735.166 98.537109 L 1720.2383 0 L 1273.4883 0 z M 1872.1641 0 L 1880.4043 72.601562 C 1889.5751 153.39751 1912.5345 230.05567 1946.9688 300 L 2250 300 L 2250 607.26953 C 2298.6345 631.90946 2350.7472 650.89075 2405.5586 663.33008 C 2446.7926 672.68708 2494.5885 679.25578 2511.7695 677.92578 L 2543.0078 675.50586 L 2546.3359 337.75391 L 2549.6621 0 L 1872.1641 0 z M 557.17188 289.22656 C 556.10722 289.10625 555.26288 292.58674 554.58008 300 L 561.18945 300 C 559.59187 293.21552 558.26358 289.34993 557.17188 289.22656 z M 2250 916.58984 L 2250 1245.9082 C 2286.9753 1254.978 2324.5358 1262.4017 2362.5996 1268.084 C 2427.4616 1277.768 2494.5885 1284.7619 2511.7695 1283.6289 L 2543.0078 1281.5645 L 2546.5039 1128.4043 L 2550 975.24414 L 2467.7773 966.34766 C 2394.5273 958.4211 2320.7467 941.30101 2250 916.58984 z M 2250 1539.791 L 2250 1861.9375 C 2300.3325 1870.2225 2351.2933 1876.4203 2402.7949 1880.4219 C 2473.0399 1885.8799 2534.7298 1891.1536 2539.8848 1892.1426 C 2545.0388 1893.1316 2549.2559 1822.9173 2549.2559 1736.1113 C 2549.2559 1649.3063 2547.0391 1578.2832 2544.3301 1578.2832 C 2541.6221 1578.2832 2482.2753 1572.3572 2412.4453 1565.1172 C 2358.0425 1559.4758 2303.7024 1550.9663 2250 1539.791 z M 2250 2011.8945 L 2250 2329.8418 C 2262.5101 2331.4271 2275.0193 2332.9031 2287.5273 2334.2539 C 2345.5713 2340.5209 2426.8002 2344.8672 2468.0352 2343.9102 L 2543.0078 2342.1719 L 2543.0078 2039.1406 L 2418.0547 2030.6543 C 2361.4382 2026.8092 2305.3847 2020.5208 2250 2011.8945 z M 2250 2484.1738 L 2250 2490.8652 C 2265.3931 2489.2755 2267.1303 2487.4072 2255.6133 2485.2363 C 2253.6565 2484.8674 2251.9363 2484.5392 2250 2484.1738 z " />
</svg>
