<?xml version="1.0" encoding="UTF-8" standalone="no"?>
<svg
   xmlns:dc="http://purl.org/dc/elements/1.1/"
   xmlns:cc="http://creativecommons.org/ns#"
   xmlns:rdf="http://www.w3.org/1999/02/22-rdf-syntax-ns#"
   xmlns:svg="http://www.w3.org/2000/svg"
   xmlns="http://www.w3.org/2000/svg"
   width="2800"
   height="2800"
   version="1.1"
   id="svg933">
  <metadata
     id="metadata939">
    <rdf:RDF>
      <cc:Work
         rdf:about="">
        <dc:format>image/svg+xml</dc:format>
        <dc:type
           rdf:resource="http://purl.org/dc/dcmitype/StillImage" />
        <dc:title></dc:title>
      </cc:Work>
    </rdf:RDF>
  </metadata>
  <defs
     id="defs937" />
  <path
     fill="#000000"
     d="M12.308 1393.846V344.616h1610.41l67.102 44.246c135.841 89.573 211.98 191.851 227.035 304.984 3.868 29.062 3.135 32.308-7.292 32.308-25.686 0-87.829 19.995-137.047 44.095-94.076 46.066-174.182 143.13-200.034 242.38-12.05 46.264-12.07 137.423-.042 184.54 32.2 126.122 135.266 228.893 256.078 255.342 55.64 12.18 159.265 5.017 210.128-14.528 134.418-51.65 241.541-182.905 272.955-334.443 13.26-63.959 8.412-221.22-9.167-297.386C2266.852 651.98 2195.004 515.562 2088.52 400l-48.197-52.308 371.584-1.587c204.372-.872 372.554-.618 373.737.566 1.477 1.477 3.393 1905.894 2.102 2088.714-.039 6.13-281.725 7.692-1387.747 7.692H12.308zm1264.373 591.408c28.902-55.26 52.537-102.933 52.522-105.94-.012-3.007-23.25-17.328-51.634-31.824-177.825-90.82-305.261-240.798-305.261-359.259 0-20.516 2.073-23.83 16.923-27.044 39.93-8.642 104.778-29.521 127.618-41.09 85.968-43.54 167.219-138.58 195.568-228.758 18.796-59.791 18.668-154.39-.294-215.954-48.931-158.876-193.396-258.666-357.128-246.688-100.528 7.354-168.873 40.97-251.284 123.595-47.999 48.123-60.381 64.97-84.068 114.38-46.88 97.788-60.533 186.75-47.853 311.826 29.502 291.03 180.972 521.409 467.63 711.24 63.131 41.808 173.76 102.757 179.77 99.042 2.718-1.68 28.588-48.266 57.49-103.526z"
     id="path931" />
</svg>
