<?xml version="1.0" encoding="UTF-8" standalone="no"?>
<svg
   xmlns:dc="http://purl.org/dc/elements/1.1/"
   xmlns:cc="http://creativecommons.org/ns#"
   xmlns:rdf="http://www.w3.org/1999/02/22-rdf-syntax-ns#"
   xmlns:svg="http://www.w3.org/2000/svg"
   xmlns="http://www.w3.org/2000/svg"
   width="141.12"
   height="49.999996"
   version="1.1"
   id="svg6">
  <metadata
     id="metadata12">
    <rdf:RDF>
      <cc:Work
         rdf:about="">
        <dc:format>image/svg+xml</dc:format>
        <dc:type
           rdf:resource="http://purl.org/dc/dcmitype/StillImage" />
        <dc:title></dc:title>
      </cc:Work>
    </rdf:RDF>
  </metadata>
  <defs
     id="defs10" />
  <path
     d="m 117.76,49.84442 c -2.96,-0.452716 -5.722,-1.301801 -8.61,-2.650234 -2.921,-1.363006 -3.693,-1.904128 -6.273,-4.400866 -4.413,-4.2668 -6.487,-8.428678 -7.187,-14.417936 -1.036,-8.850306 2.727,-17.567518 9.814,-22.7407214 4.548,-3.3195934 9.236,-4.92158633 15.296,-5.2266353 5.718,-0.28950509 9.563,0.39831235 16.4,2.9309961 l 2.96,1.0968162 V 12.400144 L 136.524,10.70003 C 131.468,8.3393007 127.62,7.4144388 122.72,7.3833511 c -3.37,-0.021373 -4.147,0.077719 -6.345,0.8102256 -3.153,1.0501845 -5.327,2.4073613 -7.597,4.7408883 -3.188,3.27782 -4.692,6.587698 -4.999,11.005079 -0.647,9.310795 5.026,16.84667 14.171,18.82366 3.191,0.68976 8.535,0.480889 12.127,-0.473118 1.406,-0.373053 2.742,-0.828684 2.968,-1.010353 0.308,-0.249674 0.39,-1.435868 0.324,-4.717573 l -0.089,-4.385322 -1.2,-0.09715 -1.2,-0.09618 V 25.18111 h 10.24 v 21.085296 l -2.482,0.920976 c -2.918,1.082244 -7.019,2.108141 -10.158,2.542399 -2.146,0.296305 -9.048,0.370139 -10.72,0.114636 z M 0,24.87995 V 0 H 8.324 L 8.242,24.792516 8.16,50 H 4.08 0 Z m 19.52,-0.0097 V 0 H 43.862 L 43.771,3.3419378 43.68,6.6838757 35.6,6.7674241 27.52,6.8500011 V 21.761456 H 41.6 V 28.60077 H 27.52 L 27.52,50 h -8 z"
     id="path2"
     style="stroke-width:0.985644" />
  <path
     fill="#bd1717"
     d="M 69.48,0.56735224 C 69.322,0.40025535 53.105,28.904848 43.417,46.379103 L 41.556,50 c 18.324628,0 42.572778,0 55.352,0 C 96.682,49.457907 69.672,0.76650842 69.48,0.56735224 Z M 69.344,15.105753 c 0.31,0.03497 15.425,26.857911 15.443,27.405834 0.01,0.30602 -3.298,0.389569 -15.507,0.389569 -9.638,0 -15.52,-0.111722 -15.52,-0.296306 0,-0.506148 15.314,-27.529213 15.584,-27.499097 z"
     id="path4"
     style="stroke-width:0.985644" />
</svg>
