<?xml version="1.0" encoding="UTF-8" standalone="no"?>
<svg
   xmlns:dc="http://purl.org/dc/elements/1.1/"
   xmlns:cc="http://creativecommons.org/ns#"
   xmlns:rdf="http://www.w3.org/1999/02/22-rdf-syntax-ns#"
   xmlns:svg="http://www.w3.org/2000/svg"
   xmlns="http://www.w3.org/2000/svg"
   width="2800"
   height="2800"
   version="1.1"
   id="svg639">
  <metadata
     id="metadata645">
    <rdf:RDF>
      <cc:Work
         rdf:about="">
        <dc:format>image/svg+xml</dc:format>
        <dc:type
           rdf:resource="http://purl.org/dc/dcmitype/StillImage" />
        <dc:title></dc:title>
      </cc:Work>
    </rdf:RDF>
  </metadata>
  <defs
     id="defs643" />
  <path
     fill="#000000"
     d="M452.833 2774.68c-39.087-20.582-266.984-97.044-413.177-138.625-24.845-7.066-39.875-78.182-22.309-105.558 12.01-18.718 41.584-22.653 160.368-21.343 110.176 1.216 145.642-2.913 145.642-16.955 0-45.358 45.954-66.264 134.918-61.378 77.966 4.282 87.863 1.716 92.499-23.977 7.829-43.398 43.742-64.456 93.09-54.587 75.126 15.026 32.017-18.82-69.717-54.735-106.176-37.483-128.207-62.326-101.605-114.577 15.046-29.554 26.753-34.402 74.597-30.893 193.837 14.214 496.267 171.893 650.385 339.09 68.531 74.348 74.201 106.644 30.996 176.553-34.816 56.333-63.01 60.748-109.433 17.137l-33.335-31.317-51.434 60.089c-57.197 66.823-82.61 72.696-135.51 31.317-46.024-36-67.7-35.997-79.13 0-17.684 55.721-57.697 61.58-139.038 20.361l-74.812-37.91-27.345 37.54c-32.034 43.976-56.983 45.913-125.65 9.754zm929.918-1313.37c-6.283-841.58-15.106-1331.973-24.128-1340.994-9.373-9.373-52.175 22.454-125.525 93.342-167.285 161.666-237.779 224.13-231.788 205.38 9.495-29.712 360.363-423.467 373.366-419 18.871 6.48 689.422 775.383 689.422 790.54 0 7.233-16.026 44.777-35.614 83.43-121.991 240.739-380.068 1035.222-583.205 1795.385-17.444 65.278-36.42 118.687-42.17 118.687s-14.91-597.047-20.358-1326.77zm622.725 1277.825c-34.951-59.24-47.623-62.144-105.28-24.133-22.891 15.09-50.644 23.975-61.674 19.742-27.286-10.47-66.059-88.363-56.45-113.405 12.725-33.16-15.712-23.242-69.977 24.402-59.7 52.419-84.699 47.672-118.128-22.43-31.987-67.078-12.72-103.474 107.261-202.611 161.026-133.051 600.024-331.26 672.276-303.534 48.256 18.517 44.112 115.112-5.615 130.895-15.444 4.902-30.79 27.4-35.81 52.503-4.833 24.16-21.466 54.719-36.964 67.91-20.58 17.516-25.93 34.907-19.841 64.496 8.008 38.922 10.663 40.073 67.619 29.311 32.605-6.16 85.028-11.443 116.494-11.74 49.025-.464 60.065 5.371 77.144 40.757 18.75 38.847 23.798 40.767 85.097 32.365 35.84-4.913 90.574-2.09 121.631 6.273 54.065 14.559 56.043 17.16 46.478 61.146-23.646 108.737-19.533 106.048-174.256 113.913-99.83 5.074-174.226 18.338-253.17 45.135-134.174 45.546-142.404 45.997-165.468 9.065-17.222-27.577-20.475-27.843-71.796-5.887-29.566 12.649-61.693 26.28-71.394 30.292-9.718 4.018-31.351-15.948-48.177-44.465z"
     id="path625" />
</svg>
