<?xml version="1.0" encoding="UTF-8" standalone="no"?>
<svg
   xmlns:dc="http://purl.org/dc/elements/1.1/"
   xmlns:cc="http://creativecommons.org/ns#"
   xmlns:rdf="http://www.w3.org/1999/02/22-rdf-syntax-ns#"
   xmlns:svg="http://www.w3.org/2000/svg"
   xmlns="http://www.w3.org/2000/svg"
   width="2800"
   height="2800"
   version="1.1"
   id="svg234">
  <metadata
     id="metadata240">
    <rdf:RDF>
      <cc:Work
         rdf:about="">
        <dc:format>image/svg+xml</dc:format>
        <dc:type
           rdf:resource="http://purl.org/dc/dcmitype/StillImage" />
        <dc:title></dc:title>
      </cc:Work>
    </rdf:RDF>
  </metadata>
  <defs
     id="defs238" />
  <path
     fill="#000"
     d="M17.084 2167.746l.724-85.614 170.543-.706c108.123-.447 170.543-1.68 170.543-3.369 0-1.464-5.24-5.327-11.643-8.584-62.08-31.567-109.589-91.567-133.235-168.269-18.253-59.21-17.544-46.353-19.286-349.653-.872-151.686-2.341-276.548-3.266-277.472-3.156-3.153-109.3-16.932-170.232-22.098L0 1250.18V985.54l17.123-1.755c135.73-13.91 246.318-18.99 418.481-19.223 85.135-.114 156.948.678 159.585 1.76 4.531 1.861 4.797 21.764 4.842 363.004.052 394.813-.237 387.289 15.727 410.349 4.172 6.027 13.117 13.82 19.877 17.318 18.589 9.618 46.971 7.535 74.327-5.456 57.373-27.247 108.131-104.4 124.114-188.654 3.675-19.37 4.263-61.075 4.299-305.004.022-155.412 1.025-284.116 2.227-286.01 1.729-2.722 44.237-3.295 203.377-2.739l201.192.703.694 401.862c.656 379.714.957 401.941 5.48 403.298 14.842 4.457 130.473 17.886 162.314 18.852l20.548.623 1.37-616.422 1.37-616.42 31.505-1.862c102.097-6.03 309.584-11.024 473.96-11.407 195.184-.454 203.474-.058 281.645 13.453 200.703 34.689 328.49 139.231 360.55 294.965 23.062 112.022.325 220.227-64.296 305.984-20.683 27.449-64.71 69.23-89.724 85.149-10.656 6.78-19.442 14.177-19.524 16.437-.086 2.353 5.035 6.242 11.981 9.099 22.146 9.106 62.659 38.167 86.367 61.953 78.443 78.699 116.312 190.597 104.388 308.453-16.248 160.59-98.808 283.598-244.002 363.54-41.365 22.774-114.095 49.388-170.543 62.407-14.692 3.388-26.712 7.236-26.712 8.55 0 1.343 137.19 2.696 313.005 3.087l313.005.697.724 85.614.724 85.614H16.36zm242.6 47.286c17.146-7.781 20.113-16.818 19.159-58.356l-.769-33.45H261.637l-1.37 34.246c-.754 18.835-2.414 35.863-3.691 37.84-6.846 10.6-30.656 8.326-33.322-3.183-.75-3.24-1.668-20.068-2.038-37.396l-.674-31.506-8.904-.859-8.904-.858v39.529c0 35.782.536 40.21 5.652 46.714 10.047 12.773 32.252 15.924 51.299 7.28zm622.687 2.701c12.684-3.523 21.522-13.122 23.542-25.57 2.2-13.556-4.005-22.172-22.498-31.242-11.69-5.733-14.946-8.712-14.946-13.676 0-7.35 8.915-11.845 19.483-9.824 13.008 2.486 17.248-13.102 4.65-17.1-3.023-.96-11.123-.901-18 .13-17.04 2.555-28.05 13.539-28.05 27.982 0 13.942 4.828 20.213 21.618 28.077 23.832 11.162 21.553 24.797-4.146 24.797-14.461 0-14.733.147-14.733 8.018 0 8.303 2.925 10.23 16.438 10.826 3.767.166 11.256-.921 16.642-2.418zm867.568-1.463c5.547-2.317 12.462-6.324 15.367-8.904 13.096-11.629 19.415-41.826 12.552-59.99-10.549-27.92-47.396-36.504-70.316-16.38-12.448 10.93-17.178 22.375-17.178 41.565 0 21.19 7.808 35.8 22.763 42.59 14.005 6.358 23.576 6.65 36.812 1.12zm-30.933-21.688c-5.676-5.675-6.725-9.342-6.725-23.498 0-14.886.901-17.674 8.008-24.781 18.284-18.284 38.566-5.19 38.566 24.898 0 11.92-1.233 15.323-8.008 22.097-10.218 10.218-22.415 10.71-31.841 1.284zm157.56 22.323c5.424-1.868 12.176-7.26 15.752-12.579 5.745-8.545 6.26-12.326 6.26-46.063v-36.753l-8.905.858-8.904.859-.764 34.577c-.853 38.591-3.468 44.416-19.949 44.416-15.145 0-17.49-5.445-19.011-44.15l-1.37-34.843H1823.237l-.717 36.985c-.635 32.785-.103 37.984 4.69 45.784 8.057 13.111 29.317 17.81 49.355 10.909zm252.43-2.054c4.419-2.365 5.191-5.98 5.191-24.306 0-22.756-2.544-27.024-13.952-23.404-3.882 1.233-5.138 4.969-5.778 17.185-.78 14.91-1.168 15.65-8.646 16.506-17.486 2-31.911-12.226-31.886-31.445.014-10.649 9.343-25.124 18.484-28.68 4.187-1.63 14.455-2.234 23.12-1.361 13.982 1.408 15.768.998 17.349-3.982 2.473-7.79-2.471-12.535-15.18-14.568-14.896-2.381-31.394.643-41.813 7.664-34.36 23.156-29.25 78.375 8.223 88.86 11.507 3.22 36.865 1.825 44.888-2.47zm103.94 2.905c11.016-3.06 25.522-16.801 29.847-28.271 4.666-12.379 3.478-34.583-2.514-46.96-12.246-25.299-45.295-30.226-68.991-10.287-24.634 20.728-20.692 68.966 6.745 82.547 12.767 6.32 20.492 6.977 34.913 2.971zm-25.016-19.961c-7.42-5.697-10.721-14.748-10.721-29.395 0-11.92 1.233-15.322 8.008-22.097 10.481-10.481 22.57-10.77 31.848-.76 5.561 6.002 6.718 10.048 6.718 23.499 0 14.306-.957 17.206-8.008 24.256-8.566 8.566-20.115 10.431-27.845 4.497zm160.434 20.035c14.16-3.283 17.88-8.862 17.88-26.816 0-16.982-3.53-25.323-10.719-25.323-7.604 0-10.756 5.55-11.707 20.617-.852 13.493-.959 13.637-10.754 14.456-21.037 1.76-35.256-22.265-26.12-44.132 5.843-13.984 17.77-19.45 37.858-17.35 15.383 1.608 15.938 1.437 17.664-5.437 2.13-8.491-1.223-11.135-17.189-13.55-22.538-3.409-48.596 9.031-57.787 27.588-8.898 17.966-5.359 45.19 7.474 57.485 13.605 13.035 32.206 17.376 53.4 12.462zM347.35 2189.663c.431-14.691 1.664-26.686 2.74-26.656 1.075.031 9.059 12.36 17.741 27.397l15.786 27.34h24.591v-96.234l-8.904.858-8.904.859-1.37 27.396-1.37 27.397-6.849-10.879c-3.767-5.983-11.197-18.312-16.51-27.396-9.533-16.296-9.827-16.518-21.918-16.518h-12.255l-.758 43.724c-.416 24.048-.115 45.398.67 47.442.85 2.218 4.474 3.368 8.976 2.85l7.55-.868zm130.719-19.862v-46.574l-7.922-.905c-4.5-.513-8.92.67-10.232 2.74-2.663 4.2-3.254 81.774-.674 88.496 1.193 3.11 4.339 4.227 10.274 3.65l8.554-.833zm108.798 1.628c8.609-24.72 15.01-45.986 14.223-47.258-.787-1.273-4.954-2.314-9.26-2.314-8.534 0-9.235 1.295-22.896 42.302-3.484 10.46-7.52 19.411-8.967 19.894-1.448.482-6.749-11.773-11.78-27.235s-10.38-29.653-11.887-31.537c-1.506-1.883-6.287-3.424-10.623-3.424-10.679 0-10.355 3.272 4.513 45.56 19.348 55.032 16.776 50.732 29.771 49.781l11.252-.823zm104.895 38.097c0-6.31-1.188-6.957-15.069-8.22l-15.068-1.37v-21.916l14.142-.82c23.717-1.375 22.595-15.986-1.347-17.532-12.639-.816-12.795-.943-12.795-10.415v-9.589l15.068-1.37c13.881-1.261 15.069-1.909 15.069-8.218 0-6.756-.347-6.86-25.342-7.637l-25.342-.788v96.3l25.342-.789c24.995-.777 25.342-.881 25.342-7.636zm64.381-6.85c0-19.212 3.83-19.348 16.482-.585 8.38 12.426 10.963 14.394 19.862 15.134 13.202 1.097 13.098-2.003-.728-21.714-6.027-8.593-10.959-16.228-10.959-16.968 0-.74 4.315-5.66 9.589-10.934 12.75-12.75 13.266-26.058 1.468-37.856-7.862-7.863-8.842-8.096-30.821-7.324l-22.7.798-.758 43.724c-.416 24.048-.147 45.315.6 47.259.745 1.944 5.093 3.535 9.66 3.535 8.24 0 8.305-.118 8.305-15.069zm1.827-41.55c-3.616-3.617-1.874-20.246 2.289-21.843 6.75-2.59 17.047 1.31 18.541 7.023 2.784 10.645-13.454 22.196-20.83 14.82zm209.126 8.501v-48.117l-8.904.858-8.903.859-.758 43.724c-.416 24.048-.147 45.315.6 47.259.745 1.944 5.093 3.535 9.66 3.535h8.305zm84.93 8.393l1.37-38.356 10.958-1.37c9.497-1.187 10.958-2.282 10.958-8.218v-6.85h-65.751v6.85c0 5.936 1.461 7.031 10.958 8.219l10.96 1.37.716 35.615c.395 19.588 1.312 37.239 2.04 39.223.774 2.116 4.445 3.25 8.871 2.74l7.55-.868zm115.76 36.3c3.119-9.268-1.178-12.752-16.734-13.57l-15.467-.813v-21.917l15.068-1.37c13.88-1.262 15.068-1.91 15.068-8.22 0-6.309-1.187-6.956-15.068-8.218l-15.068-1.37v-19.178l14.363-.827c10.293-.593 15.09-2.187 16.931-5.627 5.037-9.41-.308-11.623-26.047-10.782l-24.425.799-.757 43.724c-.417 24.048-.147 45.315.599 47.259 1.886 4.914 49.886 5.017 51.537.11zm172.676-.348c26.635-11.396 36.896-48.228 20.811-74.7-8.237-13.558-20.28-17.76-48.251-16.838l-24.017.793-.757 43.724c-.417 24.048-.147 45.315.599 47.259 1.871 4.877 40.071 4.701 51.615-.238zm-30.91-44.171v-31.506h10.35c13.587 0 21.64 5.994 25.54 19.012 6.75 22.527-6.189 44-26.51 44h-9.38zm152.051 39.725c0-6.31-1.187-6.957-15.068-8.22l-15.068-1.37v-21.916l14.142-.82c14.355-.832 18.838-4.48 15.667-12.744-.997-2.597-6.428-4.259-15.667-4.794l-14.142-.82v-19.178l15.068-1.37c13.88-1.261 15.068-1.909 15.068-8.218 0-6.756-.347-6.86-25.342-7.637l-25.341-.788v96.3l25.341-.789c24.995-.777 25.342-.881 25.342-7.636zm172.657 3.897c10.608-5.034 18.993-20.18 16.226-29.31-1.016-3.351-4.128-8.594-6.917-11.65-4.938-5.41-4.93-5.768.297-13.697 7.497-11.374 6.73-19.565-2.713-29.01-7.92-7.919-8.7-8.096-32.191-7.322l-24.075.793-.757 43.724c-.417 24.048-.147 45.315.599 47.259 2.009 5.235 38.047 4.663 49.531-.787zm-30.485-15.994c-.819-2.133-1.088-7.373-.6-11.644.714-6.232 2.426-7.941 8.666-8.656 7.972-.912 18.25 5.76 18.25 11.85 0 9.676-23.01 17.065-26.316 8.45zm-.014-41.127c-.825-2.151-1.095-6.774-.6-10.274 1.73-12.199 24.19-8.982 24.19 3.464 0 9.172-20.422 15.067-23.59 6.81zm365.505 45.69c.456-7.911 1.984-14.384 3.397-14.384 1.413 0 7.07 6.781 12.573 15.068 9.25 13.933 10.802 15.069 20.575 15.069 5.814 0 10.571-1.253 10.571-2.783s-5.576-10.446-12.39-19.811l-12.39-17.028 9.556-8.27c11.237-9.726 14.437-20.23 9.67-31.74-4.957-11.966-15.385-16.256-39.514-16.256h-20.683v96.235l8.903-.859c8.683-.837 8.925-1.215 9.732-15.241zm1.07-50.684c.706-9.77 1.859-11.788 7.157-12.539 8.013-1.136 14.232 3.951 14.232 11.642 0 8.14-5.054 12.54-14.403 12.54-7.516 0-7.795-.465-6.987-11.643zm478.325 38.355c.431-14.691 1.708-26.711 2.838-26.711 1.13 0 8.937 12.02 17.35 26.711l15.296 26.712 12.687.835 12.687.835v-96.535l-8.904.858-8.904.859-1.37 27.396c-1.545 30.902.444 31.409-21.515-5.48l-13.047-21.916h-24.34l-.757 43.724c-.417 24.048-.116 45.398.669 47.442.85 2.218 4.474 3.368 8.976 2.85l7.55-.868zm167.704 20c0-7.918-.32-8.1-15.753-8.905l-15.753-.821v-21.917l15.068-1.37c13.881-1.262 15.069-1.91 15.069-8.22 0-6.309-1.188-6.956-15.069-8.218l-15.068-1.37v-19.178l15.068-1.37c14.062-1.278 15.127-1.88 15.946-9.009l.877-7.639-25.534.79-25.534.79-.758 43.725c-.416 24.048-.147 45.315.6 47.259.968 2.525 8.421 3.535 26.099 3.535h24.742zm-1465.45-100.725c8.493-5.017 10.578-13.644 3.917-16.2-5.916-2.27-23.357 9.411-23.357 15.644 0 6.696 8.627 6.943 19.44.556zm-276.41-81.6c1.061-28.628 3.009-59.716 4.33-69.083 1.32-9.367 1.571-18.371.558-20.01-1.073-1.736-8.435 5.08-17.638 16.328-36.6 44.736-88.166 85.458-139.172 109.904-13.185 6.319-23.972 12.585-23.972 13.925 0 1.387 37.491 2.125 86.984 1.714l86.983-.724zm1147.356 47.938c289.82-14.492 483.412-128.73 551.789-325.607 26.845-77.294 32.2-168.446 14.092-239.832-26.361-103.919-96.384-189.5-185.07-226.187-8.287-3.428-16.608-7.476-18.492-8.994-6.064-4.89-3.95-15.337 4.11-20.32 89.047-55.048 140.276-114.894 168.713-197.093 14.975-43.285 19.305-75.555 17.388-129.578-2.161-60.922-11.977-102.648-34.871-148.237-61.307-122.08-194.426-192.065-401.223-210.937-85.027-7.76-671.419 2.152-682.858 11.543-2.724 2.236-3.425 154.85-3.425 746.376 0 592.428.696 743.793 3.425 744.686 1.883.616 106.983 2.205 233.555 3.53 126.572 1.327 241.226 2.617 254.787 2.867 13.562.25 48.698-.747 78.08-2.217zm-152.05-325.672l-16.438-1.71-.71-143.67c-.457-92.548.26-144.639 2.015-146.393 4.26-4.26 120.493-5.67 153.698-1.865 30.955 3.547 70.372 15.28 90.196 26.85 29.221 17.055 53.26 48.55 61.943 81.162 2.059 7.732 3.758 24.587 3.776 37.455.059 42.32-11.94 72.764-39.362 99.872-19.733 19.507-40.564 31.113-74.375 41.438-23.779 7.261-26.869 7.524-94.444 8.039-38.424.293-77.258-.237-86.3-1.178zm149.964-18.01c78.573-14.008 122.487-54.86 127.367-118.484 5.623-73.309-39.056-122.56-125.28-138.103-29.38-5.295-147.474-4.86-150.903.558-1.339 2.114-2.453 59.48-2.476 127.478-.033 96.918.713 124.26 3.452 126.533 7.595 6.303 115.545 7.777 147.84 2.019zm-159.553-570.918l-6.849-2.053V890.452l13.698-2.22c7.534-1.222 46.369-2.42 86.3-2.661 66.63-.404 74.322.042 93.54 5.425 84.303 23.609 119.38 85.493 95.345 168.206-13.824 47.57-52.671 80.551-113.053 95.98-19.216 4.91-32.365 5.856-92.27 6.637-38.424.501-72.944-.013-76.71-1.143zm158.9-20.927c23.879-5.185 56.09-19.571 71.958-32.139 15.016-11.893 30.488-36.63 36.27-57.993 7.18-26.521 4.967-64.131-4.966-84.433-17.874-36.534-56.017-56.836-116.96-62.252-36.453-3.24-131.44.756-134.548 5.66-1.293 2.04-2.37 55.22-2.393 118.178l-.042 114.469 6.164 2.66c9.933 4.287 120.248 1.119 144.517-4.15z"
     id="path228" />
</svg>
