<?xml version="1.0" encoding="UTF-8" standalone="no"?>
<svg
   xmlns:dc="http://purl.org/dc/elements/1.1/"
   xmlns:cc="http://creativecommons.org/ns#"
   xmlns:rdf="http://www.w3.org/1999/02/22-rdf-syntax-ns#"
   xmlns:svg="http://www.w3.org/2000/svg"
   xmlns="http://www.w3.org/2000/svg"
   viewBox="0 0 538.01 246.34828"
   version="1.1"
   id="svg751"
   width="538.01001"
   height="246.34828">
  <metadata
     id="metadata755">
    <rdf:RDF>
      <cc:Work
         rdf:about="">
        <dc:format>image/svg+xml</dc:format>
        <dc:type
           rdf:resource="http://purl.org/dc/dcmitype/StillImage" />
        <dc:title></dc:title>
      </cc:Work>
    </rdf:RDF>
  </metadata>
  <defs
     id="defs747" />
  <path
     fill="#fff"
     stroke-width="0.96"
     d="m 300.48,245.277 c 78.431,-6.92 159.504,-37.13 210.078,-99.913 13.177,-18.069 25.647,-40.923 27.452,-62.129 -26.94,0 -53.025,-0.763 -79.534,-1.162 C 437.31,167.919 352.419,234.803 263.128,228.918 178.545,227.481 104.658,160.87 82.793,81.1 L 0,81.6 c 5.4,44.767 38.532,80.36 72.969,106.714 65.88,46.223 148.1,62.616 227.511,56.963 z M 449.835,41.773 c -26.285,0 -53.584,0.12 -77.516,0.12 -3.731,43.663 -6.292,90.97 -32.103,128.38 -30.949,45.945 -109.948,46.818 -139.935,-0.674 -24.066,-38.044 -29.705,-84.62 -31.801,-128.712 -26.943,0 -54.09,-0.385 -81.12,-0.567 -0.847,95.038 84.536,180.594 180.19,180.594 99.254,-1.635 179.754,-101.156 182.285,-179.14 z M 278.88,197.323 C 316.274,195.209 340.8,161.148 349.22,127.61 361.513,86.533 360.996,43.416 360.96,0.96 336.886,0.85 312.52,0.7 288.72,0.7 c 0,55.792 -0.864,143.221 -2.003,171.14 -1.139,27.919 -32.366,27.606 -32.366,0 C 254.351,144.234 253.44,0 253.44,0 h -74.88 c -0.661,51.816 -0.168,106.115 22.262,153.844 13.985,29.785 45.079,48.208 78.058,43.48 z"
     id="path55"
     style="fill:#000000" />
</svg>
