<svg id="yin-yang" xmlns="http://www.w3.org/2000/svg" viewBox="0 0 512 512" preserveAspectRatio="none">
  <g class="yin-yang" id="top">
    <path class="background" d="M512 .5C416.094.5 320.187 64.373 256.25 256 192.312 447.626 96.406 511.5.5 511.5V.5z" fill="#04d" stroke="#fff" stroke-width="1.0"/>
    <svg class="text" xmlns="http://www.w3.org/2000/svg" viewBox="0 0 256 256" preserveAspectRatio="xMinYMin meet" x="10%" y="10%" width="30%" height="30%">
      <a href="">
        <g class="title" fill="#fff">
          <text style="line-height:1.25" x="29.696" y="35.568" font-size="48" font-family="sans-serif" stroke-width=".265">
            <tspan x="29.696" y="35.568">Conseil</tspan>
          </text>
          <path style="display: none;" d="M0 0h8v96H0z"/>
        </g>
        <g class="subtitle" fill="#fff">
          <text style="line-height:1.25;-inkscape-font-specification:sans-serif" x="31.694" y="126.099" font-size="18" font-family="sans-serif" letter-spacing="0">
            <tspan x="31.694" y="126.099">Accompagner</tspan>
            <tspan x="31.694" y="148.599">de la réflexion stratégique</tspan>
            <tspan x="31.694" y="171.099">à l&apos;exploitation des moyens</tspan>
          </text>
          <path d="M0 96h8v96H0z"/>
        </g>
      </a>
    </svg>
  </g>
  <g class="yin-yang" id="bottom">
    <path class="background" d="M0 511.5c95.906 0 191.813-63.874 255.75-255.5C319.688 64.374 415.594.5 511.5.5v511z" fill="#123456" stroke="#fff" stroke-width="1.0"/>
    <svg class="text" xmlns="http://www.w3.org/2000/svg" viewBox="0 0 256 256" preserveAspectRatio="xMaxYMax meet" x="60%" y="60%" width="30%" height="30%">
      <a href="">
        <g class="title" fill="#fff">
          <text style="line-height:1.25" x="24.945" y="245.536" font-size="48" font-family="sans-serif" stroke-width=".265">
            <tspan x="24.945" y="245.536">Expertise</tspan>
          </text>
          <path style="display: none;" d="M248 160h8v96h-8z"/>
        </g>
        <g class="subtitle" fill="#fff">
          <text style="line-height:1.25;-inkscape-font-specification:sans-serif" x="224.216" y="123.203" font-size="18" font-family="sans-serif" letter-spacing="0">
            <tspan x="224.216" y="123.203" style="text-align:end" text-anchor="end">Dépasser</tspan>
            <tspan x="224.216" y="145.703" style="text-align:end" text-anchor="end">les incidents</tspan>
          </text>
          <path d="M248 96h8v64h-8z"/>
        </g>
      </a>
    </svg>
  </g>
</svg>
