<?xml version="1.0" encoding="UTF-8" standalone="no"?>
<svg
   xmlns:dc="http://purl.org/dc/elements/1.1/"
   xmlns:cc="http://creativecommons.org/ns#"
   xmlns:rdf="http://www.w3.org/1999/02/22-rdf-syntax-ns#"
   xmlns:svg="http://www.w3.org/2000/svg"
   xmlns="http://www.w3.org/2000/svg"
   id="svg913"
   version="1.1"
   viewBox="0 0 203.2 203.2"
   height="768"
   width="768">
  <metadata
     id="metadata919">
    <rdf:RDF>
      <cc:Work
         rdf:about="">
        <dc:format>image/svg+xml</dc:format>
        <dc:type
           rdf:resource="http://purl.org/dc/dcmitype/StillImage" />
        <dc:title></dc:title>
      </cc:Work>
    </rdf:RDF>
  </metadata>
  <defs
     id="defs917" />
  <path
     style="stroke:#ffffff;stroke-opacity:1"
     id="path903"
     stroke-width="8.467"
     stroke="#182d3a"
     fill="none"
     d="M152.93 97.923a59.267 59.267 0 0 1-4.308 65.712 59.267 59.267 0 0 1-62.358 21.168 59.267 59.267 0 0 1-43.42-49.511A59.267 59.267 0 0 1 71.97 76.23" />
  <path
     id="path905"
     stroke-width="6.773"
     stroke="#0bd"
     fill="none"
     d="M117.82 83.002a47.413 47.413 0 0 1 31.151 42.486 47.413 47.413 0 0 1-27.33 45.04 47.413 47.413 0 0 1-52.07-8.015 47.413 47.413 0 0 1-12.522-51.173" />
  <path
     id="path907"
     stroke-width="5.419"
     stroke="#0de"
     fill="none"
     d="M88.63 91.913a37.93 37.93 0 0 1 40.938 10.017 37.93 37.93 0 0 1 6.412 41.656 37.93 37.93 0 0 1-36.032 21.865 37.93 37.93 0 0 1-33.988-24.922" />
  <path
     id="path909"
     stroke-width="4.335"
     stroke="#0ff"
     fill="none"
     d="M75.324 112.384a30.345 30.345 0 0 1 30.24-14.913 30.345 30.345 0 0 1 25.35 22.231 30.345 30.345 0 0 1-10.838 31.928 30.345 30.345 0 0 1-33.645 2.205" />
  <path
     style="fill:#ffffff;fill-opacity:1"
     id="path911"
     d="M65.607 12.143h8.467v67.733h-8.467z"
     fill="#182d3a" />
</svg>
