<?xml version="1.0" encoding="UTF-8" standalone="no"?>
<svg  xmlns:dc="http://purl.org/dc/elements/1.1/"  xmlns:cc="http://creativecommons.org/ns#"  xmlns:rdf="http://www.w3.org/1999/02/22-rdf-syntax-ns#"  xmlns:svg="http://www.w3.org/2000/svg"  xmlns="http://www.w3.org/2000/svg"  xmlns:sodipodi="http://sodipodi.sourceforge.net/DTD/sodipodi-0.dtd"  xmlns:inkscape="http://www.inkscape.org/namespaces/inkscape"  width="768"  height="768"  viewBox="0 0 203.2 203.2"  version="1.1"  id="svg8"  sodipodi:docname="cccc.svg"  inkscape:version="0.92.4 (5da689c313, 2019-01-14)"  inkscape:export-filename="/home/gully/images/travail/logo/test-tube/cccc_square.svg.png"  inkscape:export-xdpi="96"  inkscape:export-ydpi="96">
	<defs id="defs2"/>
	<sodipodi:namedview id="base" pagecolor="#ffffff" bordercolor="#666666" borderopacity="1.0" inkscape:pageopacity="0.0" inkscape:pageshadow="2" inkscape:zoom="0.49497475" inkscape:cx="115.79169" inkscape:cy="264.59249" inkscape:document-units="px" inkscape:current-layer="layer1" showgrid="false" inkscape:pagecheckerboard="true" units="px" inkscape:window-width="1920" inkscape:window-height="1080" inkscape:window-x="0" inkscape:window-y="-16" inkscape:window-maximized="1"/>
	<metadata id="metadata5">
		<rdf:RDF>
			<cc:Work rdf:about="">
				<dc:format>image/svg+xml</dc:format>
				<dc:type  rdf:resource="http://purl.org/dc/dcmitype/StillImage" />
				<dc:title></dc:title>
			</cc:Work>
		</rdf:RDF>
	</metadata>
	<g inkscape:label="Layer 1" inkscape:groupmode="layer" id="layer1" transform="translate(0,-93.799978)">
		<g  id="g851"  transform="translate(33.868428,0.55680103)">
			<path sodipodi:open="true" d="M 119.06093,191.16592 A 59.266666,59.266666 0 0 1 114.75391,256.87851 59.266666,59.266666 0 0 1 52.395156,278.04646 59.266666,59.266666 0 0 1 8.9748653,228.53511 59.266666,59.266666 0 0 1 38.101164,169.47282" sodipodi:end="4.1887902" sodipodi:start="5.7595865" sodipodi:ry="59.266666" sodipodi:rx="59.266666" sodipodi:cy="220.79926" sodipodi:cx="67.734497" sodipodi:type="arc" id="path819" style="fill:none;fill-opacity:1;stroke:#182d3a;stroke-width:8.46666622;stroke-miterlimit:4;stroke-dasharray:none;stroke-opacity:1" />
			<path inkscape:connector-curvature="0" d="" style="fill:none;fill-opacity:1;stroke:#182d3a;stroke-width:8.46666622;stroke-miterlimit:4;stroke-dasharray:none;stroke-opacity:1" id="path829" r="59.266666" cy="229.26665" cx="67.73333" />
			<path sodipodi:open="true" d="M 83.950811,176.24529 A 47.413334,47.413334 0 0 1 115.1027,218.73111 47.413334,47.413334 0 0 1 87.772239,263.77033 47.413334,47.413334 0 0 1 35.702513,255.75603 47.413334,47.413334 0 0 1 23.180537,204.58294" sodipodi:end="3.4906585" sodipodi:start="5.0614548" sodipodi:ry="47.413334" sodipodi:rx="47.413334" sodipodi:cy="220.79926" sodipodi:cx="67.734497" sodipodi:type="arc" style="fill:none;fill-opacity:1;stroke:#00bbdd;stroke-width:6.77333307;stroke-miterlimit:4;stroke-dasharray:none;stroke-opacity:1" id="circle831" />
			<path sodipodi:open="true" d="m 54.761444,185.15609 a 37.930668,37.930668 0 0 1 40.938474,10.01758 37.930668,37.930668 0 0 1 6.411442,41.65578 37.930668,37.930668 0 0 1 -36.031375,21.86437 37.930668,37.930668 0 0 1 -33.988657,-24.92151" sodipodi:end="2.7925268" sodipodi:start="4.3633231" sodipodi:ry="37.930668" sodipodi:rx="37.930668" sodipodi:cy="220.79926" sodipodi:cx="67.734497" sodipodi:type="arc" id="circle833" style="fill:none;fill-opacity:1;stroke:#00ddee;stroke-width:5.41866636;stroke-miterlimit:4;stroke-dasharray:none;stroke-opacity:1" />
			<path sodipodi:open="true" d="m 41.455359,205.62699 a 30.344534,30.344534 0 0 1 30.239894,-14.91267 30.344534,30.344534 0 0 1 25.349813,22.23119 30.344534,30.344534 0 0 1 -10.837987,31.92768 30.344534,30.344534 0 0 1 -33.644849,2.2052" sodipodi:end="2.0943951" sodipodi:start="3.6651914" sodipodi:ry="30.344534" sodipodi:rx="30.344534" sodipodi:cy="220.79926" sodipodi:cx="67.734497" sodipodi:type="arc" style="fill:none;fill-opacity:1;stroke:#00ffff;stroke-width:4.33493328;stroke-miterlimit:4;stroke-dasharray:none;stroke-opacity:1" id="circle835" />
			<rect y="105.38638" x="31.739244" height="67.73333" width="8.4666662" id="rect860" style="fill:#182d3a;fill-opacity:1;stroke:none;stroke-width:13.82600784;stroke-miterlimit:4;stroke-dasharray:none;stroke-opacity:1" />
		</g>
	</g>
</svg>